<svg preserveAspectRatio="none" id="svg" viewBox="0 0 650 600">
              <defs
                 id="defs27086" />
              <g
                 inkscape:label="Layer 1"
                 inkscape:groupmode="layer"
                 id="layer1"
             >
                <g
                   id="g25788"
        
                   >
                  <path
                     d="m 388.08,487.76 c -1.6797,3.9219 -3.3594,8.3984 -5.0391,12.32 l -7.2773,3.918 -7.2812,-3.3594 -6.1602,-13.441 c -1.1211,-1.6797 -2.2383,-3.3594 -4.4805,-3.9219 l -5.6016,-2.8008 1.6797,-7.2812 c 0.55859,-1.6797 0,-3.9219 -0.55859,-5.6016 l -11.762,-24.641 c -1.1211,-2.2383 -3.3594,-3.9219 -5.6016,-4.4805 l -13.996,-2.793 -7.8398,-16.801 6.1602,-7.8398 c 2.2383,-2.8008 2.2383,-6.1602 1.1211,-8.9609 l -10.641,-21.84 c -1.1211,-2.8008 -3.9219,-4.4805 -6.7188,-5.0391 l -14,-1.6797 -7.8398,-16.238 c -1.1211,-1.6797 -2.8008,-3.3594 -4.4805,-4.4805 l -14,-5.6016"
                     id="path25610"
                    />
                  <path
                     d="m 599.76,301.84 c -2.2383,-5.6016 -4.4805,-11.199 -5.6016,-17.359 -0.55859,-2.8008 -2.2383,-5.0391 -5.0391,-6.1602 l -188.16,-83.441 c -3.3594,-30.801 -22.398,-57.68 -50.961,-70.559 -33.039,-14.559 -70,-7.2812 -95.199,16.238 38.078,3.3594 72.238,26.879 89.039,61.602 12.32,26.32 14,55.441 5.0391,81.762 6.1602,-2.8008 12.32,-6.1602 17.922,-10.078 l 21.84,9.5195 c 2.2383,1.1211 4.4805,1.1211 6.1602,0.55859 l 14,-5.0391 17.359,7.8398 c 2.8008,1.1211 5.6016,1.1211 8.3984,-0.55859 l 11.762,-7.8398 12.32,5.6016 0.55859,10.078 c 0,3.3594 2.2383,6.1602 5.0391,7.8398 l 25.762,11.758 c 2.2383,1.1211 5.0391,1.1211 7.2812,0 l 12.32,-6.1602 18.48,8.3984 5.6016,10.078 c 1.6797,3.3594 6.1602,5.0391 10.078,3.9219 l 9.5195,-2.8008 13.441,6.1602 c 1.6797,1.1211 3.9219,1.1211 6.1602,0.55859 l 14.559,-4.4805 c 2.2383,-0.55859 4.4805,-2.2383 5.6016,-5.0391 l 6.7188,-14.559 c 1.1172,-2.8008 1.1172,-5.6016 0,-7.8398 z"
                     id="path25612"
                      />
                  <path
                     d="m 201.6,241.92 c -56,0 -101.92,-45.922 -101.92,-101.92 0,-55.998 45.922,-101.92 101.92,-101.92 36.398,0 70.559,19.602 88.48,51.52 2.8008,5.0391 1.1211,11.762 -3.9219,15.121 -5.0391,2.8008 -11.762,1.1211 -15.121,-3.9219 -14,-25.199 -40.879,-40.32 -69.441,-40.32 -44.238,0 -80.078,35.84 -80.078,80.078 0,44.238 35.84,80.078 80.078,80.078 9.5195,0 19.039,-1.6797 28,-5.0391 5.6016,-2.2383 12.32,0.55859 14,6.7188 2.2383,5.6016 -0.55859,12.32 -6.7188,14 -11.199,3.3672 -22.957,5.6094 -35.277,5.6094 z"
                     id="path25614"
                      />
                  <path
                     d="M 406,484.4 316.961,299.04 c 17.922,-25.762 20.16,-58.801 6.7188,-86.801 -20.719,-43.121 -72.801,-61.602 -116.48,-40.879 -9.5195,4.4805 -17.922,10.641 -24.641,17.922 l -1.6797,5.0391 c 6.7188,2.8008 13.441,3.9219 20.719,3.9219 6.7188,0 14,-1.1211 20.16,-3.3594 3.9219,-1.1211 7.8398,-2.2383 11.762,-2.2383 14,0 26.32,8.3984 30.801,21.281 6.1602,17.359 -2.2383,36.398 -19.602,42.559 -14,5.0391 -28.559,7.8398 -43.121,7.8398 -15.121,0 -29.68,-2.8008 -43.68,-7.8398 0.55859,10.641 3.3594,21.281 8.3984,31.359 13.441,28.559 42,47.039 72.801,49.281 l 10.641,21.84 c 1.1211,1.6797 2.8008,3.3594 4.4805,4.4805 l 14,5.6016 8.3984,17.359 c 1.1211,2.8008 3.9219,4.4805 6.7188,5.0391 l 14,1.6797 5.6016,12.32 -6.1602,7.8398 c -2.2383,2.8008 -2.2383,6.1602 -1.1211,8.9609 l 12.32,25.762 c 1.1211,2.2383 3.3594,3.9219 5.6016,4.4805 l 13.441,3.3594 8.3984,17.922 -2.2383,11.199 c -0.55859,3.9219 1.1211,7.8398 5.0391,9.5195 l 9.5195,3.9219 6.1602,13.441 c 1.1211,1.6797 2.2383,3.3594 4.4805,4.4805 l 13.441,6.1602 c 2.2383,1.1211 5.0391,1.1211 7.2812,0 l 14.559,-7.2812 c 2.2383,-1.1211 3.9219,-2.8008 4.4805,-5.6016 1.6797,-5.6016 3.9219,-11.762 6.7188,-16.801 2.2422,-3.3672 2.2422,-6.168 1.1211,-8.4102 z"
                     id="path25616"
                     />
                </g>
              </g>
            </svg>